<svg enable-background="new 0 0 578 256" height="256" viewBox="0 0 578 256" width="578" xmlns="http://www.w3.org/2000/svg"><g fill="#a3c05a"><path d="m153.2 157c-1.2 16.5-7.3 29.4-18.3 38.9-10.9 9.5-25.4 14.2-43.3 14.2-19.6 0-35.1-6.6-46.4-19.8-11.2-13.2-16.8-31.4-16.8-54.4v-9.4c0-14.7 2.6-27.7 7.8-38.9s12.6-19.8 22.2-25.8c9.7-6 20.9-9 33.6-9 17.7 0 31.9 4.7 42.7 14.2s17 22.7 18.7 39.8h-31.5c-.8-9.9-3.5-17-8.3-21.4-4.7-4.5-11.9-6.7-21.5-6.7-10.5 0-18.4 3.8-23.7 11.4-5.2 7.5-7.8 19.2-8 35v11.6c0 16.5 2.5 28.6 7.5 36.3 5 7.6 13 11.5 23.8 11.5 9.7 0 17-2.2 21.8-6.6 4.8-4.5 7.6-11.4 8.3-20.7h31.4z"/><path d="m171.5 150.1c0-11.3 2.2-21.3 6.5-30.2 4.3-8.8 10.6-15.7 18.7-20.5 8.2-4.8 17.7-7.3 28.5-7.3 15.3 0 27.9 4.7 37.5 14.1 9.7 9.4 15.2 22.1 16.3 38.3l.2 7.8c0 17.4-4.9 31.5-14.6 42s-22.8 15.8-39.2 15.8-29.5-5.3-39.3-15.8c-9.7-10.5-14.6-24.8-14.6-42.9zm30.4 2.2c0 10.8 2 19.1 6.1 24.8s9.9 8.5 17.4 8.5c7.4 0 13.1-2.8 17.2-8.4 4.1-5.7 6.2-14.7 6.2-27.1 0-10.6-2.1-18.8-6.2-24.6s-10-8.7-17.4-8.7-13.2 2.9-17.2 8.7c-4.1 5.7-6.1 14.7-6.1 26.8z"/><path d="m334.3 208h-30.5v-161.5h30.5z"/><path d="m359 150.1c0-11.3 2.2-21.3 6.5-30.2 4.3-8.8 10.6-15.7 18.7-20.5 8.2-4.8 17.7-7.3 28.5-7.3 15.3 0 27.9 4.7 37.5 14.1 9.7 9.4 15.2 22.1 16.3 38.3l.2 7.8c0 17.4-4.9 31.5-14.6 42s-22.8 15.8-39.2 15.8-29.5-5.3-39.3-15.8c-9.7-10.5-14.6-24.8-14.6-42.9zm30.4 2.2c0 10.8 2 19.1 6.1 24.8s9.9 8.5 17.4 8.5c7.4 0 13.1-2.8 17.2-8.4 4.1-5.7 6.2-14.7 6.2-27.1 0-10.6-2.1-18.8-6.2-24.6s-10-8.7-17.4-8.7-13.2 2.9-17.2 8.7c-4.1 5.7-6.1 14.7-6.1 26.8z"/><path d="m553.7 122.8c-4.1-.6-7.8-.8-10.9-.8-11.5 0-19 3.9-22.6 11.7v74.3h-30.4v-113.7h28.7l.8 13.6c6.1-10.4 14.5-15.7 25.3-15.7 3.4 0 6.5.5 9.5 1.4z"/></g></svg>