<svg enable-background="new 0 0 1015 256" height="256" viewBox="0 0 1015 256" width="1015" xmlns="http://www.w3.org/2000/svg"><g fill="#a3c05a"><path d="m33.1 206.8v-153h47.1c13.5 0 25.5 3 36.1 9.1 10.7 6 19 14.6 24.9 25.9 6 11.1 8.9 23.8 8.9 38.1v7c0 14.2-2.9 26.9-8.8 37.9-5.8 11.1-14.1 19.7-24.7 25.8-10.7 6.1-22.7 9.2-36.1 9.2zm31.5-127.5v102.2h15.2c12.3 0 21.8-4 28.3-12.1s9.8-19.6 10-34.6v-8.1c0-15.6-3.2-27.3-9.7-35.3-6.4-8.1-15.9-12.1-28.3-12.1z"/><path d="m241.3 206.8c-1.4-2.7-2.4-6.1-3-10.2-7.4 8.2-16.9 12.3-28.7 12.3-11.1 0-20.4-3.2-27.8-9.7-7.3-6.4-10.9-14.6-10.9-24.4 0-12.1 4.4-21.3 13.4-27.8 9-6.4 21.9-9.7 38.8-9.8h14v-6.5c0-5.3-1.4-9.5-4.1-12.6-2.7-3.2-6.9-4.7-12.7-4.7-5.1 0-9.1 1.2-12.1 3.7-2.9 2.5-4.3 5.8-4.3 10.1h-30.4c0-6.6 2-12.7 6.1-18.3s9.8-10 17.2-13.1c7.4-3.2 15.8-4.8 25-4.8 14 0 25.1 3.5 33.3 10.6 8.3 7 12.4 16.9 12.4 29.6v49.3c.1 10.8 1.6 19 4.5 24.5v1.8zm-25.1-21.1c4.5 0 8.6-1 12.4-2.9 3.8-2 6.6-4.7 8.4-8.1v-19.6h-11.4c-15.2 0-23.3 5.3-24.3 15.8l-.1 1.8c0 3.8 1.3 6.9 4 9.4 2.7 2.4 6.3 3.6 11 3.6z"/><path d="m331.5 65.1v28h19.4v22.3h-19.4v56.8c0 4.2.8 7.2 2.4 9s4.7 2.7 9.2 2.7c3.4 0 6.3-.2 8.9-.7v23c-6 1.8-12.1 2.7-18.4 2.7-21.3 0-32.2-10.8-32.6-32.3v-61.3h-16.6v-22.2h16.6v-28z"/><path d="m424.5 208.9c-16.7 0-30.3-5.1-40.8-15.3-10.4-10.2-15.7-23.9-15.7-40.9v-2.9c0-11.4 2.2-21.6 6.6-30.6s10.7-16 18.7-20.8c8.1-4.9 17.4-7.4 27.8-7.4 15.6 0 27.8 4.9 36.7 14.7 9 9.8 13.5 23.7 13.5 41.7v12.4h-72.4c1 7.4 3.9 13.4 8.8 17.9 5 4.5 11.2 6.7 18.8 6.7 11.7 0 20.8-4.2 27.4-12.7l14.9 16.7c-4.6 6.4-10.7 11.5-18.5 15.1-7.7 3.6-16.3 5.4-25.8 5.4zm-3.5-93.3c-6 0-10.9 2-14.7 6.1-3.7 4.1-6.1 9.9-7.1 17.4h42.3v-2.4c-.1-6.7-2-11.9-5.5-15.6-3.6-3.7-8.5-5.5-15-5.5z"/><path d="m610.1 79.3h-46.9v127.5h-31.5v-127.5h-46.2v-25.5h124.7v25.5z"/><path d="m662.6 206.8h-30.5v-113.7h30.5zm-32.3-143.1c0-4.6 1.5-8.3 4.5-11.2 3.1-2.9 7.3-4.4 12.5-4.4s9.3 1.5 12.4 4.4 4.6 6.7 4.6 11.2c0 4.6-1.6 8.4-4.7 11.4-3.1 2.9-7.2 4.4-12.3 4.4s-9.2-1.5-12.4-4.4c-3.1-3-4.6-6.8-4.6-11.4z"/><path d="m720.5 93.1.9 12.7c8.1-9.9 19-14.8 32.7-14.8 14.6 0 24.7 5.8 30.2 17.3 8-11.6 19.4-17.3 34.2-17.3 12.3 0 21.5 3.6 27.5 10.8 6 7.1 9 17.9 9 32.4v72.6h-30.5v-72.5c0-6.4-1.3-11.1-3.8-14.1s-7-4.5-13.3-4.5c-9.1 0-15.4 4.3-18.9 13l.1 78.1h-30.4v-72.4c0-6.6-1.3-11.4-3.9-14.3s-7-4.4-13.2-4.4c-8.6 0-14.9 3.6-18.7 10.7v80.4h-30.4v-113.7z"/><path d="m935.1 208.9c-16.7 0-30.3-5.1-40.8-15.3-10.4-10.2-15.7-23.9-15.7-40.9v-2.9c0-11.4 2.2-21.6 6.6-30.6s10.7-16 18.7-20.8c8.1-4.9 17.4-7.4 27.8-7.4 15.6 0 27.8 4.9 36.7 14.7 9 9.8 13.5 23.7 13.5 41.7v12.4h-72.4c1 7.4 3.9 13.4 8.8 17.9 5 4.5 11.2 6.7 18.8 6.7 11.7 0 20.8-4.2 27.4-12.7l14.9 16.7c-4.6 6.4-10.7 11.5-18.5 15.1-7.7 3.6-16.3 5.4-25.8 5.4zm-3.5-93.3c-6 0-10.9 2-14.7 6.1-3.7 4.1-6.1 9.9-7.1 17.4h42.2v-2.4c-.1-6.7-2-11.9-5.5-15.6-3.4-3.7-8.4-5.5-14.9-5.5z"/></g></svg>