<svg enable-background="new 0 0 559 256" height="256" viewBox="0 0 559 256" width="559" xmlns="http://www.w3.org/2000/svg"><g fill="#f63"><path d="m83.4 187.8c-16.7 0-30.3-5.1-40.8-15.3-10.4-10.3-15.6-24-15.6-41v-2.9c0-11.4 2.2-21.6 6.6-30.6s10.7-16 18.7-20.8c8.1-4.9 17.4-7.4 27.8-7.4 15.6 0 27.8 4.9 36.7 14.7 9 9.8 13.5 23.7 13.5 41.7v12.4h-72.5c1 7.4 3.9 13.4 8.8 17.9 5 4.5 11.2 6.7 18.8 6.7 11.7 0 20.8-4.2 27.4-12.7l14.9 16.7c-4.6 6.4-10.7 11.5-18.5 15.1-7.7 3.7-16.3 5.5-25.8 5.5zm-3.5-93.4c-6 0-10.9 2-14.7 6.1-3.7 4.1-6.1 9.9-7.1 17.4h42.3v-2.4c-.1-6.7-2-11.9-5.5-15.6-3.5-3.6-8.5-5.5-15-5.5z"/><path d="m215.7 100.4c-4.1-.6-7.8-.8-10.9-.8-11.5 0-19 3.9-22.6 11.7v74.4h-30.4v-113.8h28.7l.8 13.6c6.1-10.4 14.5-15.7 25.3-15.7 3.4 0 6.5.5 9.5 1.4z"/><path d="m298.7 100.4c-4.1-.6-7.8-.8-10.9-.8-11.5 0-19 3.9-22.6 11.7v74.4h-30.4v-113.8h28.7l.8 13.6c6.1-10.4 14.5-15.7 25.3-15.7 3.4 0 6.5.5 9.5 1.4z"/><path d="m309.2 127.7c0-11.3 2.2-21.3 6.5-30.2 4.3-8.8 10.6-15.7 18.7-20.5 8.2-4.8 17.7-7.3 28.5-7.3 15.3 0 27.9 4.7 37.5 14.1 9.7 9.4 15.2 22.1 16.3 38.3l.2 7.8c0 17.4-4.9 31.5-14.6 42s-22.8 15.8-39.2 15.8-29.5-5.3-39.3-15.8c-9.7-10.5-14.6-24.8-14.6-42.9zm30.4 2.2c0 10.8 2 19.1 6.1 24.8s9.9 8.5 17.4 8.5c7.4 0 13.1-2.8 17.2-8.4 4.1-5.7 6.2-14.7 6.2-27.1 0-10.6-2.1-18.8-6.2-24.6s-10-8.7-17.4-8.7-13.2 2.9-17.2 8.7c-4.1 5.8-6.1 14.7-6.1 26.8z"/><path d="m503.8 100.4c-4.1-.6-7.8-.8-10.9-.8-11.5 0-19 3.9-22.6 11.7v74.4h-30.4v-113.8h28.7l.8 13.6c6.1-10.4 14.5-15.7 25.3-15.7 3.4 0 6.5.5 9.5 1.4z"/></g></svg>