<svg enable-background="new 0 0 311 256" height="256" viewBox="0 0 311 256" width="311" xmlns="http://www.w3.org/2000/svg"><g fill="#a3c05a"><path d="m63.1 207.3h-30.5v-113.7h30.5zm-32.2-143.2c0-4.6 1.5-8.3 4.5-11.2 3.1-2.9 7.3-4.4 12.5-4.4s9.3 1.5 12.4 4.4 4.6 6.7 4.6 11.2c0 4.6-1.6 8.4-4.7 11.4-3.1 2.9-7.2 4.4-12.3 4.4s-9.2-1.5-12.4-4.4c-3.1-2.9-4.6-6.7-4.6-11.4z"/><path d="m120.5 93.6.9 13.1c8.1-10.2 19-15.2 32.7-15.2 12.1 0 21 3.5 26.9 10.6s8.9 17.7 9 31.7v73.5h-30.4v-72.7c0-6.4-1.4-11.1-4.2-14s-7.5-4.4-14-4.4c-8.5 0-15 3.6-19.2 10.9v80.2h-30.3v-113.7z"/><path d="m253.9 65.6v28h19.4v22.3h-19.4v56.8c0 4.2.8 7.2 2.4 9s4.7 2.7 9.2 2.7c3.4 0 6.3-.2 8.9-.7v23c-6 1.8-12.1 2.7-18.4 2.7-21.3 0-32.2-10.8-32.6-32.3v-61.3h-16.6v-22.2h16.6v-28z"/></g></svg>