<svg enable-background="new 0 0 660 256" height="256" viewBox="0 0 660 256" width="660" xmlns="http://www.w3.org/2000/svg"><g fill="#a3c05a"><path d="m26.3 128.7c0-11.3 2.2-21.3 6.5-30.2 4.3-8.8 10.6-15.7 18.7-20.5 8.2-4.8 17.7-7.3 28.5-7.3 15.3 0 27.9 4.7 37.5 14.1 9.7 9.4 15.2 22.1 16.3 38.3l.2 7.8c0 17.4-4.9 31.5-14.6 42s-22.8 15.8-39.2 15.8-29.5-5.3-39.3-15.8c-9.7-10.5-14.6-24.8-14.6-42.9zm30.4 2.3c0 10.8 2 19.1 6.1 24.8s9.9 8.5 17.4 8.5c7.4 0 13.1-2.8 17.2-8.4 4.1-5.7 6.2-14.7 6.2-27.1 0-10.6-2.1-18.8-6.2-24.6s-10-8.7-17.4-8.7-13.2 2.9-17.2 8.7c-4.1 5.7-6.1 14.6-6.1 26.8z"/><path d="m259.6 130.9c0 18.2-3.9 32.4-11.7 42.7-7.8 10.2-18.6 15.2-32.6 15.2-12.3 0-22.2-4.7-29.5-14.2l-1.4 12.1h-27.3v-161.5h30.4v57.9c7-8.2 16.2-12.3 27.6-12.3 13.9 0 24.7 5.1 32.6 15.3s11.9 24.5 11.9 43zm-30.4-2.3c0-11.5-1.8-19.9-5.5-25.1-3.6-5.3-9.1-8-16.3-8-9.7 0-16.3 4-20 11.9v44.9c3.7 8 10.4 12 20.2 12s16.3-4.8 19.3-14.5c1.6-4.7 2.3-11.7 2.3-21.2z"/><path d="m314.9 72.9v119.9c0 12.5-3.3 22.3-10 29.2-6.7 7-16.3 10.5-28.8 10.5-5.3 0-10.3-.6-15-1.8v-24.1c3.6.6 6.8.9 9.6.9 9.2 0 13.8-4.9 13.8-14.6v-120zm-32.9-29.4c0-4.6 1.5-8.3 4.5-11.2 3.1-2.9 7.3-4.4 12.5-4.4 5.3 0 9.4 1.5 12.4 4.4 3.1 2.9 4.6 6.7 4.6 11.2 0 4.6-1.6 8.4-4.7 11.4-3.1 2.9-7.2 4.4-12.3 4.4s-9.2-1.5-12.4-4.4c-3.1-3-4.6-6.8-4.6-11.4z"/><path d="m395.3 188.8c-16.7 0-30.3-5.1-40.8-15.3-10.4-10.2-15.7-23.9-15.7-40.9v-2.9c0-11.4 2.2-21.6 6.6-30.6s10.7-16 18.7-20.8c8.1-4.9 17.4-7.4 27.8-7.4 15.6 0 27.8 4.9 36.7 14.7 9 9.8 13.5 23.7 13.5 41.7v12.4h-72.4c1 7.4 3.9 13.4 8.8 17.9 5 4.5 11.2 6.7 18.8 6.7 11.7 0 20.8-4.2 27.4-12.7l14.9 16.7c-4.6 6.4-10.7 11.5-18.5 15.1s-16.4 5.4-25.8 5.4zm-3.5-93.4c-6 0-10.9 2-14.7 6.1-3.7 4.1-6.1 9.9-7.1 17.4h42.3v-2.4c-.1-6.7-2-11.9-5.5-15.6-3.6-3.6-8.6-5.5-15-5.5z"/><path d="m511 164.3c5.6 0 10.2-1.5 13.7-4.6s5.3-7.2 5.5-12.3h28.5c-.1 7.7-2.2 14.8-6.3 21.2s-9.8 11.4-17 14.9c-7.1 3.5-15.1 5.3-23.8 5.3-16.3 0-29.1-5.2-38.5-15.5-9.4-10.4-14.1-24.7-14.1-42.9v-2c0-17.5 4.7-31.5 14-41.9s22.1-15.7 38.4-15.7c14.2 0 25.6 4.1 34.2 12.2s13 18.8 13.1 32.3h-28.5c-.1-5.9-2-10.7-5.5-14.3-3.5-3.7-8.1-5.6-13.9-5.6-7.1 0-12.4 2.6-16.1 7.8-3.6 5.1-5.4 13.5-5.4 25v3.2c0 11.7 1.8 20.1 5.4 25.2s9 7.7 16.3 7.7z"/><path d="m616.6 45v28h19.4v22.3h-19.4v56.7c0 4.2.8 7.2 2.4 9s4.7 2.7 9.2 2.7c3.4 0 6.3-.2 8.9-.7v23c-6 1.8-12.1 2.7-18.4 2.7-21.3 0-32.2-10.8-32.6-32.3v-61.2h-16.6v-22.3h16.6v-27.9z"/></g></svg>