<svg enable-background="new 0 0 613 256" height="256" viewBox="0 0 613 256" width="613" xmlns="http://www.w3.org/2000/svg"><g fill="#a3c05a"><path d="m92.7 154.5c0-3.7-1.9-6.6-5.6-8.7-3.6-2.2-9.5-4.1-17.7-5.8-27-5.7-40.6-17.2-40.6-34.5 0-10.1 4.2-18.5 12.5-25.2 8.4-6.8 19.4-10.2 32.9-10.2 14.4 0 26 3.4 34.6 10.2 8.7 6.8 13 15.6 13 26.5h-30.3c0-4.3-1.4-7.9-4.2-10.7-2.8-2.9-7.2-4.3-13.1-4.3-5.1 0-9.1 1.2-11.9 3.5s-4.2 5.3-4.2 8.8c0 3.4 1.6 6.1 4.7 8.2 3.2 2 8.6 3.8 16.2 5.4 7.6 1.5 13.9 3.2 19.1 5 16 5.9 24.1 16.1 24.1 30.6 0 10.4-4.4 18.8-13.3 25.2s-20.4 9.6-34.5 9.6c-9.5 0-18-1.7-25.4-5-7.4-3.4-13.1-8.1-17.3-14-4.2-6-6.3-12.4-6.3-19.2h28.8c.3 5.4 2.3 9.5 6 12.4s8.7 4.3 14.9 4.3c5.8 0 10.2-1.1 13.1-3.3 3-2.3 4.5-5.2 4.5-8.8z"/><path d="m182.5 44.3v28h19.5v22.3h-19.4v56.8c0 4.2.8 7.2 2.4 9s4.7 2.7 9.2 2.7c3.4 0 6.3-.2 8.9-.7v23c-6 1.8-12.1 2.7-18.4 2.7-21.3 0-32.2-10.8-32.6-32.3v-61.3h-16.6v-22.3h16.6v-28h30.4z"/><path d="m287.1 100.7c-4.1-.6-7.8-.8-10.9-.8-11.5 0-19 3.9-22.6 11.7v74.4h-30.4v-113.8h28.7l.8 13.6c6.1-10.4 14.5-15.7 25.3-15.7 3.4 0 6.5.5 9.5 1.4z"/><path d="m338.2 186h-30.5v-113.8h30.5zm-32.3-143.2c0-4.6 1.5-8.3 4.5-11.2 3.1-2.9 7.3-4.4 12.5-4.4s9.3 1.5 12.4 4.4 4.6 6.7 4.6 11.2c0 4.6-1.6 8.4-4.7 11.4-3.1 2.9-7.2 4.4-12.3 4.4s-9.2-1.5-12.4-4.4c-3-3-4.6-6.8-4.6-11.4z"/><path d="m395.6 72.2.9 13.1c8.1-10.2 19-15.2 32.7-15.2 12.1 0 21 3.5 26.9 10.6s8.9 17.7 9 31.7v73.6h-30.4v-72.7c0-6.4-1.4-11.1-4.2-14s-7.5-4.4-14-4.4c-8.5 0-15 3.6-19.2 10.9v80.2h-30.3v-113.8z"/><path d="m488.2 128.3c0-17.4 4.1-31.5 12.4-42.2s19.6-16 33.6-16c12.5 0 22.2 4.3 29.1 12.8l1.3-10.7h27.5v109.9c0 10-2.3 18.6-6.8 26s-10.8 13-19 16.8c-8.2 3.9-17.8 5.8-28.8 5.8-8.3 0-16.5-1.7-24.4-5s-13.9-7.6-18-12.8l13.5-18.5c7.6 8.5 16.7 12.7 27.5 12.7 8.1 0 14.3-2.2 18.8-6.5s6.7-10.4 6.7-18.3v-6.1c-7 7.9-16.2 11.9-27.6 11.9-13.7 0-24.7-5.3-33.2-16-8.4-10.7-12.6-24.9-12.6-42.6zm30.4 2.2c0 10.3 2.1 18.4 6.2 24.3 4.1 5.8 9.8 8.7 17 8.7 9.2 0 15.9-3.5 19.9-10.4v-47.8c-4.1-6.9-10.6-10.4-19.7-10.4-7.3 0-13 3-17.2 8.9s-6.2 14.8-6.2 26.7z"/></g></svg>