<svg enable-background="new 0 0 706 256" height="256" viewBox="0 0 706 256" width="706" xmlns="http://www.w3.org/2000/svg"><g fill="#b6c7f7"><path d="m148.3 59.2h-46.9v127.5h-31.6v-127.5h-46.2v-25.6h124.7z"/><path d="m225.6 101.4c-4.1-.6-7.8-.8-10.9-.8-11.5 0-19 3.9-22.6 11.7v74.4h-30.4v-113.8h28.7l.8 13.6c6.1-10.4 14.5-15.7 25.3-15.7 3.4 0 6.5.5 9.5 1.4z"/><path d="m276.7 186.7h-30.5v-113.8h30.5zm-32.3-143.2c0-4.6 1.5-8.3 4.5-11.2 3.1-2.9 7.3-4.4 12.5-4.4s9.3 1.5 12.4 4.4 4.6 6.7 4.6 11.2c0 4.6-1.6 8.4-4.7 11.4-3.1 2.9-7.2 4.4-12.3 4.4s-9.2-1.5-12.4-4.4c-3-3-4.6-6.8-4.6-11.4z"/><path d="m408.5 130.9c0 17.5-4 31.6-12 42.2-7.9 10.5-18.6 15.8-32.2 15.8-11.5 0-20.8-4-27.9-12v53.6h-30.4v-157.6h28.2l1.1 11.1c7.4-8.8 17-13.2 28.8-13.2 14 0 24.9 5.2 32.7 15.6s11.7 24.7 11.7 42.9zm-30.4-2.3c0-10.6-1.9-18.7-5.7-24.5-3.7-5.7-9.1-8.6-16.3-8.6-9.5 0-16.1 3.6-19.7 10.9v46.6c3.7 7.5 10.3 11.2 19.9 11.2 14.6.1 21.8-11.8 21.8-35.6z"/><path d="m463.8 186.7h-30.5v-161.5h30.5z"/><path d="m545.6 188.8c-16.7 0-30.3-5.1-40.8-15.3-10.4-10.2-15.7-23.9-15.7-40.9v-2.9c0-11.4 2.2-21.6 6.6-30.6s10.7-16 18.7-20.8c8.1-4.9 17.4-7.4 27.8-7.4 15.6 0 27.8 4.9 36.7 14.7 9 9.8 13.5 23.7 13.5 41.7v12.4h-72.4c1 7.4 3.9 13.4 8.8 17.9 5 4.5 11.2 6.7 18.8 6.7 11.7 0 20.8-4.2 27.4-12.7l14.9 16.7c-4.6 6.4-10.7 11.5-18.5 15.1-7.7 3.6-16.4 5.4-25.8 5.4zm-3.5-93.4c-6 0-10.9 2-14.7 6.1-3.7 4.1-6.1 9.9-7.1 17.4h42.3v-2.4c-.1-6.7-2-11.9-5.5-15.6-3.6-3.6-8.6-5.5-15-5.5z"/><path d="m650.4 45v28h19.4v22.3h-19.4v56.7c0 4.2.8 7.2 2.4 9s4.7 2.7 9.2 2.7c3.4 0 6.3-.2 8.9-.7v23c-6 1.8-12.1 2.7-18.4 2.7-21.3 0-32.2-10.8-32.6-32.3v-61.2h-16.6v-22.3h16.7v-27.9z"/></g></svg>