<svg enable-background="new 0 0 528 256" height="256" viewBox="0 0 528 256" width="528" xmlns="http://www.w3.org/2000/svg"><g fill="#a3c05a"><path d="m148.3 54.6h-46.9v127.5h-31.6v-127.5h-46.2v-25.5h124.7z"/><path d="m202.5 139.1 21-70.7h32.6l-45.7 131.4-2.5 6c-6.8 14.9-18 22.3-33.6 22.3-4.4 0-8.9-.7-13.5-2v-23l4.6.1c5.7 0 10-.9 12.8-2.6 2.9-1.8 5.1-4.7 6.7-8.7l3.6-9.4-39.8-114h32.7z"/><path d="m374.8 126.3c0 17.5-4 31.6-12 42.2-7.9 10.5-18.6 15.8-32.2 15.8-11.5 0-20.8-4-27.9-12v53.6h-30.4v-157.5h28.2l1.1 11.1c7.4-8.8 17-13.2 28.8-13.2 14 0 24.9 5.2 32.7 15.6s11.7 24.7 11.7 42.9zm-30.4-2.2c0-10.6-1.9-18.7-5.7-24.5-3.7-5.7-9.1-8.6-16.3-8.6-9.5 0-16.1 3.6-19.7 10.9v46.6c3.7 7.5 10.3 11.2 19.9 11.2 14.5 0 21.8-11.8 21.8-35.6z"/><path d="m450.3 184.2c-16.7 0-30.3-5.1-40.8-15.3-10.4-10.2-15.7-23.9-15.7-40.9v-2.9c0-11.4 2.2-21.6 6.6-30.6s10.7-16 18.7-20.8c8.1-4.9 17.4-7.4 27.8-7.4 15.6 0 27.8 4.9 36.7 14.7 9 9.8 13.5 23.7 13.5 41.7v12.4h-72.4c1 7.4 3.9 13.4 8.8 17.9 5 4.5 11.2 6.7 18.8 6.7 11.7 0 20.8-4.2 27.4-12.7l14.9 16.7c-4.6 6.4-10.7 11.5-18.5 15.1-7.7 3.7-16.3 5.4-25.8 5.4zm-3.4-93.3c-6 0-10.9 2-14.7 6.1-3.7 4.1-6.1 9.9-7.1 17.4h42.3v-2.4c-.1-6.7-2-11.9-5.5-15.6-3.6-3.6-8.6-5.5-15-5.5z"/></g></svg>