<svg enable-background="new 0 0 578 256" height="256" viewBox="0 0 578 256" width="578" xmlns="http://www.w3.org/2000/svg"><g fill="#474aa4"><path d="m119.5 158.4h-55.3l-10.5 31.5h-33.6l57-153h29.2l57.3 153h-33.5zm-46.8-25.6h38.3l-19.3-57.3z"/><path d="m244.1 104.6c-4.1-.6-7.8-.8-10.9-.8-11.5 0-19 3.9-22.6 11.7v74.4h-30.4v-113.7h28.7l.8 13.6c6.1-10.4 14.5-15.7 25.3-15.7 3.4 0 6.5.5 9.5 1.4z"/><path d="m327.1 104.6c-4.1-.6-7.8-.8-10.9-.8-11.5 0-19 3.9-22.6 11.7v74.4h-30.4v-113.7h28.7l.8 13.6c6.1-10.4 14.5-15.7 25.3-15.7 3.4 0 6.5.5 9.5 1.4z"/><path d="m408.8 189.9c-1.4-2.7-2.4-6.1-3-10.2-7.4 8.2-16.9 12.3-28.7 12.3-11.1 0-20.4-3.2-27.8-9.7-7.3-6.4-10.9-14.6-10.9-24.4 0-12.1 4.5-21.3 13.4-27.8 9-6.4 21.9-9.7 38.8-9.8h14v-6.5c0-5.3-1.4-9.5-4.1-12.6-2.7-3.2-6.9-4.7-12.7-4.7-5.1 0-9.1 1.2-12.1 3.7-2.9 2.5-4.3 5.8-4.3 10.1h-30.4c0-6.6 2-12.7 6.1-18.3s9.8-10 17.2-13.1c7.4-3.2 15.8-4.8 25-4.8 14 0 25.1 3.5 33.3 10.6 8.3 7 12.4 16.9 12.4 29.6v49.3c.1 10.8 1.6 19 4.5 24.5v1.8zm-25.1-21.1c4.5 0 8.6-1 12.4-2.9 3.8-2 6.6-4.7 8.4-8.1v-19.6h-11.4c-15.2 0-23.3 5.3-24.3 15.8l-.1 1.8c0 3.8 1.3 6.9 4 9.4 2.7 2.3 6.4 3.6 11 3.6z"/><path d="m503.4 146.9 21-70.7h32.6l-45.7 131.4-2.5 6c-6.8 14.9-18 22.3-33.6 22.3-4.4 0-8.9-.7-13.5-2v-23l4.6.1c5.7 0 10-.9 12.8-2.6 2.9-1.8 5.1-4.7 6.7-8.7l3.6-9.4-39.8-114h32.7z"/></g></svg>