<svg enable-background="new 0 0 472 256" height="256" viewBox="0 0 472 256" width="472" xmlns="http://www.w3.org/2000/svg"><g fill="#008000"><path d="m133.5 130.9c0 18.2-3.9 32.4-11.7 42.7-7.8 10.2-18.6 15.2-32.6 15.2-12.3 0-22.2-4.7-29.5-14.2l-1.4 12.1h-27.2v-161.5h30.4v57.9c7-8.2 16.2-12.3 27.6-12.3 13.9 0 24.7 5.1 32.6 15.3s11.9 24.5 11.9 43v1.8zm-30.3-2.3c0-11.5-1.8-19.9-5.5-25.1-3.6-5.3-9.1-8-16.3-8-9.7 0-16.3 4-20 11.9v44.9c3.7 8 10.4 12 20.2 12s16.3-4.8 19.3-14.5c1.5-4.7 2.3-11.7 2.3-21.2z"/><path d="m197.9 143.7 21-70.7h32.6l-45.7 131.4-2.5 6c-6.8 14.9-18 22.3-33.6 22.3-4.4 0-8.9-.7-13.5-2v-23l4.6.1c5.7 0 10-.9 12.8-2.6 2.9-1.8 5.1-4.7 6.7-8.7l3.6-9.4-39.8-114h32.7z"/><path d="m304.1 45v28h19.4v22.3h-19.4v56.7c0 4.2.8 7.2 2.4 9s4.7 2.7 9.2 2.7c3.4 0 6.3-.2 8.9-.7v23c-6 1.8-12.1 2.7-18.4 2.7-21.3 0-32.2-10.8-32.6-32.3v-61.2h-16.6v-22.3h16.6v-27.9z"/><path d="m397.2 188.8c-16.7 0-30.3-5.1-40.8-15.3-10.4-10.2-15.7-23.9-15.7-40.9v-2.9c0-11.4 2.2-21.6 6.6-30.6s10.7-16 18.7-20.8c8.1-4.9 17.4-7.4 27.8-7.4 15.6 0 27.8 4.9 36.7 14.7 9 9.8 13.5 23.7 13.5 41.7v12.4h-72.4c1 7.4 3.9 13.4 8.8 17.9 5 4.5 11.2 6.7 18.8 6.7 11.7 0 20.8-4.2 27.4-12.7l14.9 16.7c-4.6 6.4-10.7 11.5-18.5 15.1s-16.4 5.4-25.8 5.4zm-3.5-93.4c-6 0-10.9 2-14.7 6.1-3.7 4.1-6.1 9.9-7.1 17.4h42.3v-2.4c-.1-6.7-2-11.9-5.5-15.6-3.6-3.6-8.6-5.5-15-5.5z"/></g></svg>