<svg enable-background="new 0 0 737 256" height="256" viewBox="0 0 737 256" width="737" xmlns="http://www.w3.org/2000/svg"><g fill="#008000"><path d="m26.3 150.3c0-17.7 4-31.8 11.9-42.4 8-10.5 18.9-15.8 32.7-15.8 11.1 0 20.2 4.1 27.4 12.4v-58h30.5v161.5h-27.4l-1.5-12.1c-7.6 9.5-17.3 14.2-29.2 14.2-13.4 0-24.1-5.3-32.3-15.8-8-10.5-12.1-25.2-12.1-44zm30.4 2.2c0 10.7 1.9 18.8 5.6 24.5s9.1 8.5 16.2 8.5c9.4 0 16-4 19.9-11.9v-44.9c-3.8-7.9-10.3-11.9-19.7-11.9-14.7.1-22 11.9-22 35.7z"/><path d="m151.9 150.1c0-11.3 2.2-21.3 6.5-30.2 4.3-8.8 10.6-15.7 18.7-20.5 8.2-4.8 17.7-7.3 28.5-7.3 15.3 0 27.9 4.7 37.5 14.1 9.7 9.4 15.2 22.1 16.3 38.3l.2 7.8c0 17.4-4.9 31.5-14.6 42s-22.8 15.8-39.2 15.8-29.5-5.3-39.3-15.8c-9.7-10.5-14.6-24.8-14.6-42.9zm30.4 2.2c0 10.8 2 19.1 6.1 24.8s9.9 8.5 17.4 8.5c7.4 0 13.1-2.8 17.2-8.4 4.1-5.7 6.2-14.7 6.2-27.1 0-10.6-2.1-18.8-6.2-24.6s-10-8.7-17.4-8.7-13.2 2.9-17.2 8.7c-4.1 5.7-6.1 14.7-6.1 26.8z"/><path d="m350.8 196.4c-7.5 9.1-17.9 13.7-31.1 13.7-12.2 0-21.5-3.5-28-10.5-6.4-7-9.6-17.3-9.8-30.8v-74.5h30.4v73.5c0 11.8 5.4 17.8 16.2 17.8 10.3 0 17.4-3.6 21.2-10.7v-80.6h30.5v113.7h-28.6z"/><path d="m509.9 152.2c0 18.2-3.9 32.4-11.7 42.7-7.8 10.2-18.6 15.2-32.6 15.2-12.3 0-22.2-4.7-29.5-14.2l-1.4 12.1h-27.3v-161.5h30.4v57.9c7-8.2 16.2-12.3 27.6-12.3 13.9 0 24.7 5.1 32.6 15.3s11.9 24.5 11.9 43zm-30.3-2.2c0-11.5-1.8-19.9-5.5-25.1-3.6-5.3-9.1-8-16.3-8-9.7 0-16.3 4-20 11.9v44.9c3.7 8 10.4 12 20.2 12s16.3-4.8 19.3-14.5c1.5-4.7 2.3-11.8 2.3-21.2z"/><path d="m565.1 208h-30.5v-161.5h30.5z"/><path d="m646.9 210.1c-16.7 0-30.3-5.1-40.8-15.3-10.4-10.2-15.7-23.9-15.7-40.9v-2.9c0-11.4 2.2-21.6 6.6-30.6s10.7-16 18.7-20.8c8.1-4.9 17.4-7.4 27.8-7.4 15.6 0 27.8 4.9 36.7 14.7 9 9.8 13.5 23.7 13.5 41.7v12.4h-72.4c1 7.4 3.9 13.4 8.8 17.9 5 4.5 11.2 6.7 18.8 6.7 11.7 0 20.8-4.2 27.4-12.7l14.9 16.7c-4.6 6.4-10.7 11.5-18.5 15.1-7.7 3.6-16.3 5.4-25.8 5.4zm-3.5-93.3c-6 0-10.9 2-14.7 6.1-3.7 4.1-6.1 9.9-7.1 17.4h42.3v-2.4c-.1-6.7-2-11.9-5.5-15.6s-8.5-5.5-15-5.5z"/></g></svg>