<svg enable-background="new 0 0 609 256" height="256" viewBox="0 0 609 256" width="609" xmlns="http://www.w3.org/2000/svg"><g fill="#008000"><path d="m125.1 137.1h-60.5v41h71.1v25.3h-102.6v-153h102.4v25.6h-70.9v36.5h60.5z"/><path d="m184.4 89.7.9 13.1c8.1-10.2 19-15.2 32.7-15.2 12.1 0 21 3.5 26.9 10.6s8.9 17.7 9 31.7v73.5h-30.4v-72.7c0-6.4-1.4-11.1-4.2-14s-7.5-4.4-14-4.4c-8.5 0-15 3.6-19.2 10.9v80.2h-30.4v-113.7z"/><path d="m349.5 191.9c-7.5 9.1-17.9 13.7-31.1 13.7-12.2 0-21.5-3.5-28-10.5-6.4-7-9.6-17.3-9.8-30.8v-74.6h30.4v73.5c0 11.8 5.4 17.8 16.2 17.8 10.3 0 17.4-3.6 21.2-10.7v-80.6h30.6v113.7h-28.6z"/><path d="m434.7 89.7.9 12.7c8.1-9.9 19-14.8 32.7-14.8 14.6 0 24.7 5.8 30.2 17.3 8-11.6 19.4-17.3 34.2-17.3 12.3 0 21.5 3.6 27.5 10.8 6 7.1 9 17.9 9 32.4v72.6h-30.5v-72.5c0-6.4-1.3-11.1-3.8-14.1s-7-4.5-13.3-4.5c-9.1 0-15.4 4.3-18.9 13l.1 78.1h-30.4v-72.4c0-6.6-1.3-11.4-3.9-14.3s-7-4.4-13.2-4.4c-8.6 0-14.9 3.6-18.7 10.7v80.4h-30.4v-113.7z"/></g></svg>