<svg enable-background="new 0 0 505 256" height="256" viewBox="0 0 505 256" width="505" xmlns="http://www.w3.org/2000/svg"><g fill="#008000"><path d="m107.3 70.4c-6-.7-11.6-1.1-16.8-1.1-13.7 0-20.6 5.9-20.6 17.6v7.7h22.6v22.3h-22.7v91.4h-30.4v-91.4h-17v-22.4h16.9v-8.8c.1-13.2 4.3-23.3 12.4-30.4s19.6-10.7 34.5-10.7c10.6 0 27.7 1.1 51.5 3.4v160.3h-30.5v-137.9z"/><path d="m162.7 150.4c0-11.3 2.2-21.3 6.5-30.2 4.3-8.8 10.6-15.7 18.7-20.5 8.2-4.8 17.7-7.3 28.5-7.3 15.3 0 27.9 4.7 37.5 14.1 9.7 9.4 15.2 22.1 16.3 38.3l.2 7.8c0 17.4-4.9 31.5-14.6 42s-22.8 15.8-39.2 15.8-29.5-5.3-39.3-15.8c-9.7-10.5-14.6-24.8-14.6-42.9zm30.3 2.2c0 10.8 2 19.1 6.1 24.8s9.9 8.5 17.4 8.5c7.4 0 13.1-2.8 17.2-8.4 4.1-5.7 6.2-14.7 6.2-27.1 0-10.6-2.1-18.8-6.2-24.6s-10-8.7-17.4-8.7-13.2 2.9-17.2 8.7c-4 5.7-6.1 14.6-6.1 26.8z"/><path d="m359.3 208.3c-1.4-2.7-2.4-6.1-3-10.2-7.4 8.2-16.9 12.3-28.7 12.3-11.1 0-20.4-3.2-27.8-9.7-7.3-6.4-10.9-14.6-10.9-24.4 0-12.1 4.4-21.3 13.3-27.8 9-6.4 21.9-9.7 38.8-9.8h14v-6.5c0-5.3-1.4-9.5-4.1-12.6-2.7-3.2-6.9-4.7-12.7-4.7-5.1 0-9.1 1.2-12.1 3.7-2.9 2.5-4.3 5.8-4.3 10.1h-30.4c0-6.6 2-12.7 6.1-18.3s9.8-10 17.2-13.1c7.4-3.2 15.8-4.8 25-4.8 14 0 25.1 3.5 33.3 10.6 8.3 7 12.4 16.9 12.4 29.6v49.3c.1 10.8 1.6 19 4.5 24.5v1.8zm-25.1-21.2c4.5 0 8.6-1 12.4-2.9 3.8-2 6.6-4.7 8.4-8.1v-19.6h-11.4c-15.2 0-23.3 5.3-24.3 15.8l-.1 1.8c0 3.8 1.3 6.9 4 9.4 2.7 2.4 6.4 3.6 11 3.6z"/><path d="m449.5 66.6v28h19.5v22.3h-19.4v56.8c0 4.2.8 7.2 2.4 9s4.7 2.7 9.2 2.7c3.4 0 6.3-.2 8.9-.7v23c-6 1.8-12.1 2.7-18.4 2.7-21.3 0-32.2-10.8-32.6-32.3v-61.3h-16.6v-22.3h16.6v-28h30.4z"/></g></svg>