<svg enable-background="new 0 0 1059 256" height="256" viewBox="0 0 1059 256" width="1059" xmlns="http://www.w3.org/2000/svg"><g fill="#474aa4"><path d="m157.6 208h-31.5v-65.6h-61.5v65.6h-31.5v-153h31.5v62h61.5v-62h31.5z"/><path d="m253.5 208c-1.4-2.7-2.4-6.1-3-10.2-7.4 8.2-16.9 12.3-28.7 12.3-11.1 0-20.4-3.2-27.8-9.7-7.3-6.4-10.9-14.6-10.9-24.4 0-12.1 4.5-21.3 13.4-27.8 9-6.4 21.9-9.7 38.8-9.8h14v-6.4c0-5.3-1.4-9.5-4.1-12.6-2.7-3.2-6.9-4.7-12.7-4.7-5.1 0-9.1 1.2-12.1 3.7-2.9 2.5-4.3 5.8-4.3 10.1h-30.4c0-6.6 2-12.7 6.1-18.3s9.8-10 17.2-13.1c7.4-3.2 15.8-4.8 25-4.8 14 0 25.1 3.5 33.3 10.6 8.3 7 12.4 16.9 12.4 29.6v49.3c.1 10.8 1.6 19 4.5 24.5v1.8h-30.7zm-25.1-21.1c4.5 0 8.6-1 12.4-2.9 3.8-2 6.6-4.7 8.4-8.1v-19.6h-11.4c-15.2 0-23.3 5.3-24.3 15.8l-.1 1.8c0 3.8 1.3 6.9 4 9.4 2.7 2.3 6.3 3.6 11 3.6z"/><path d="m368.9 176.6c0-3.7-1.9-6.6-5.6-8.7-3.6-2.2-9.5-4.1-17.7-5.8-27-5.7-40.6-17.2-40.6-34.5 0-10.1 4.2-18.5 12.5-25.2 8.4-6.8 19.4-10.2 32.9-10.2 14.4 0 26 3.4 34.6 10.2 8.7 6.8 13 15.6 13 26.5h-30.4c0-4.3-1.4-7.9-4.2-10.7-2.8-2.9-7.2-4.3-13.1-4.3-5.1 0-9.1 1.2-11.9 3.5s-4.2 5.3-4.2 8.8c0 3.4 1.6 6.1 4.7 8.2 3.2 2 8.6 3.8 16.2 5.4 7.6 1.5 13.9 3.2 19.1 5 16 5.9 24.1 16.1 24.1 30.6 0 10.4-4.5 18.8-13.3 25.2-8.9 6.4-20.4 9.6-34.5 9.6-9.5 0-18-1.7-25.4-5-7.4-3.4-13.1-8.1-17.3-14-4.2-6-6.3-12.4-6.3-19.2h28.8c.3 5.4 2.3 9.5 6 12.4s8.7 4.3 14.9 4.3c5.8 0 10.2-1.1 13.1-3.3 3.1-2.3 4.6-5.3 4.6-8.8z"/><path d="m452 106.7c8.1-9.7 18.2-14.5 30.4-14.5 24.7 0 37.2 14.3 37.5 43v72.8h-30.4v-72c0-6.5-1.4-11.3-4.2-14.4-2.8-3.2-7.5-4.7-14-4.7-8.9 0-15.3 3.4-19.3 10.3v80.8h-30.4v-161.5h30.4z"/><path d="m583.5 66.3v28h19.5v22.3h-19.4v56.8c0 4.2.8 7.2 2.4 9s4.7 2.7 9.2 2.7c3.4 0 6.3-.2 8.9-.7v23c-6 1.8-12.1 2.7-18.4 2.7-21.3 0-32.2-10.8-32.6-32.3v-61.3h-16.6v-22.2h16.6v-28z"/><path d="m690.1 208c-1.4-2.7-2.4-6.1-3-10.2-7.4 8.2-16.9 12.3-28.7 12.3-11.1 0-20.4-3.2-27.8-9.7-7.3-6.4-10.9-14.6-10.9-24.4 0-12.1 4.5-21.3 13.3-27.8 9-6.4 21.9-9.7 38.8-9.8h14v-6.4c0-5.3-1.4-9.5-4.1-12.6-2.7-3.2-6.9-4.7-12.7-4.7-5.1 0-9.1 1.2-12.1 3.7-2.9 2.5-4.3 5.8-4.3 10.1h-30.4c0-6.6 2-12.7 6.1-18.3s9.8-10 17.2-13.1c7.4-3.2 15.8-4.8 25-4.8 14 0 25.1 3.5 33.3 10.6 8.3 7 12.4 16.9 12.4 29.6v49.3c.1 10.8 1.6 19 4.5 24.5v1.8h-30.6zm-25.1-21.1c4.5 0 8.6-1 12.4-2.9 3.8-2 6.6-4.7 8.4-8.1v-19.6h-11.4c-15.2 0-23.3 5.3-24.3 15.8l-.1 1.8c0 3.8 1.3 6.9 4 9.4 2.7 2.3 6.4 3.6 11 3.6z"/><path d="m846.4 152.2c0 18.2-3.9 32.4-11.7 42.7-7.8 10.2-18.6 15.2-32.6 15.2-12.3 0-22.2-4.7-29.5-14.2l-1.4 12.1h-27.3v-161.5h30.4v57.9c7-8.2 16.2-12.3 27.6-12.3 13.9 0 24.7 5.1 32.6 15.3s11.9 24.5 11.9 43zm-30.4-2.2c0-11.5-1.8-19.9-5.5-25.1-3.6-5.3-9.1-8-16.3-8-9.7 0-16.3 4-20 11.9v44.9c3.7 8 10.4 12 20.2 12s16.3-4.8 19.3-14.5c1.6-4.7 2.3-11.8 2.3-21.2z"/><path d="m901.6 208h-30.5v-161.5h30.5z"/><path d="m983.4 210.1c-16.7 0-30.3-5.1-40.8-15.3-10.4-10.2-15.7-23.9-15.7-40.9v-2.9c0-11.4 2.2-21.6 6.6-30.6s10.7-16 18.7-20.8c8.1-4.9 17.4-7.4 27.8-7.4 15.6 0 27.8 4.9 36.7 14.7 9 9.8 13.5 23.7 13.5 41.7v12.4h-72.4c1 7.4 3.9 13.4 8.8 17.9 5 4.5 11.2 6.7 18.8 6.7 11.7 0 20.8-4.2 27.4-12.7l14.9 16.7c-4.6 6.4-10.7 11.5-18.5 15.1s-16.4 5.4-25.8 5.4zm-3.5-93.3c-6 0-10.9 2-14.7 6.1-3.7 4.1-6.1 9.9-7.1 17.4h42.3v-2.4c-.1-6.7-2-11.9-5.5-15.6-3.6-3.7-8.6-5.5-15-5.5z"/></g></svg>