<svg enable-background="new 0 0 1253 256" height="256" viewBox="0 0 1253 256" width="1253" xmlns="http://www.w3.org/2000/svg"><g fill="#008000"><path d="m59 94.3.9 13.1c8.1-10.2 19-15.2 32.7-15.2 12.1 0 21 3.5 26.9 10.6s8.9 17.7 9 31.7v73.5h-30.3v-72.7c0-6.4-1.4-11.1-4.2-14s-7.5-4.4-14-4.4c-8.5 0-15 3.6-19.2 10.9v80.2h-30.4v-113.7z"/><path d="m221.9 208c-1.4-2.7-2.4-6.1-3-10.2-7.4 8.2-16.9 12.3-28.7 12.3-11.1 0-20.4-3.2-27.8-9.7-7.3-6.4-10.9-14.6-10.9-24.4 0-12.1 4.4-21.3 13.3-27.8 9-6.4 21.9-9.7 38.8-9.8h14v-6.4c0-5.3-1.4-9.5-4.1-12.6-2.7-3.2-6.9-4.7-12.7-4.7-5.1 0-9.1 1.2-12.1 3.7-2.9 2.5-4.3 5.8-4.3 10.1h-30.4c0-6.6 2-12.7 6.1-18.3s9.8-10 17.2-13.1c7.4-3.2 15.8-4.8 25-4.8 14 0 25.1 3.5 33.3 10.6 8.3 7 12.4 16.9 12.4 29.6v49.3c.1 10.8 1.6 19 4.5 24.5v1.8h-30.6zm-25.1-21.1c4.5 0 8.6-1 12.4-2.9 3.8-2 6.6-4.7 8.4-8.1v-19.6h-11.4c-15.2 0-23.3 5.3-24.3 15.8l-.1 1.8c0 3.8 1.3 6.9 4 9.4 2.8 2.3 6.4 3.6 11 3.6z"/><path d="m304.2 94.3.9 12.7c8.1-9.9 19-14.8 32.7-14.8 14.6 0 24.7 5.8 30.2 17.3 8-11.6 19.4-17.3 34.2-17.3 12.3 0 21.5 3.6 27.5 10.8 6 7.1 9 17.9 9 32.4v72.6h-30.5v-72.5c0-6.4-1.3-11.1-3.8-14.1s-7-4.5-13.4-4.5c-9.1 0-15.4 4.3-18.9 13l.1 78.1h-30.2v-72.4c0-6.6-1.3-11.4-3.9-14.3s-7-4.4-13.2-4.4c-8.6 0-14.9 3.6-18.7 10.7v80.4h-30.4v-113.7z"/><path d="m518.9 210.1c-16.7 0-30.3-5.1-40.8-15.3-10.4-10.2-15.7-23.9-15.7-40.9v-2.9c0-11.4 2.2-21.6 6.6-30.6s10.7-16 18.7-20.8c8.1-4.9 17.4-7.4 27.8-7.4 15.6 0 27.8 4.9 36.7 14.7 9 9.8 13.5 23.7 13.5 41.7v12.4h-72.4c1 7.4 3.9 13.4 8.8 17.9 5 4.5 11.2 6.7 18.8 6.7 11.7 0 20.8-4.2 27.4-12.7l14.9 16.7c-4.6 6.4-10.7 11.5-18.5 15.1-7.7 3.6-16.4 5.4-25.8 5.4zm-3.5-93.3c-6 0-10.9 2-14.7 6.1-3.7 4.1-6.1 9.9-7.1 17.4h42.3v-2.4c-.1-6.7-2-11.9-5.5-15.6-3.6-3.7-8.5-5.5-15-5.5z"/><path d="m683.9 129.6h-94v-24.8h94zm0 45.5h-94v-24.8h94z"/><path d="m757.4 170.9 21.1-76.6h31.7l-38.3 113.7h-29l-38.4-113.7h31.7z"/><path d="m892.2 208c-1.4-2.7-2.4-6.1-3-10.2-7.4 8.2-16.9 12.3-28.7 12.3-11.1 0-20.4-3.2-27.8-9.7-7.3-6.4-10.9-14.6-10.9-24.4 0-12.1 4.5-21.3 13.3-27.8 9-6.4 21.9-9.7 38.8-9.8h14v-6.4c0-5.3-1.4-9.5-4.1-12.6-2.7-3.2-6.9-4.7-12.7-4.7-5.1 0-9.1 1.2-12.1 3.7-2.9 2.5-4.3 5.8-4.3 10.1h-30.4c0-6.6 2-12.7 6.1-18.3s9.8-10 17.2-13.1c7.4-3.2 15.8-4.8 25-4.8 14 0 25.1 3.5 33.3 10.6 8.3 7 12.4 16.9 12.4 29.6v49.3c.1 10.8 1.6 19 4.5 24.5v1.8h-30.6zm-25.1-21.1c4.5 0 8.6-1 12.4-2.9 3.8-2 6.6-4.7 8.4-8.1v-19.6h-11.4c-15.2 0-23.3 5.3-24.3 15.8l-.1 1.8c0 3.8 1.3 6.9 4 9.4 2.7 2.3 6.4 3.6 11 3.6z"/><path d="m978.1 208h-30.5v-161.5h30.5z"/><path d="m1075.7 196.4c-7.5 9.1-17.9 13.7-31.1 13.7-12.2 0-21.5-3.5-28-10.5-6.4-7-9.6-17.3-9.8-30.8v-74.5h30.4v73.5c0 11.8 5.4 17.8 16.2 17.8 10.3 0 17.4-3.6 21.2-10.7v-80.6h30.5v113.7h-28.6z"/><path d="m1184.7 210.1c-16.7 0-30.3-5.1-40.8-15.3-10.4-10.2-15.7-23.9-15.7-40.9v-2.9c0-11.4 2.2-21.6 6.6-30.6s10.7-16 18.7-20.8c8.1-4.9 17.4-7.4 27.8-7.4 15.6 0 27.8 4.9 36.7 14.7 9 9.8 13.5 23.7 13.5 41.7v12.4h-72.5c1 7.4 3.9 13.4 8.8 17.9 5 4.5 11.2 6.7 18.8 6.7 11.7 0 20.8-4.2 27.4-12.7l14.9 16.7c-4.6 6.4-10.7 11.5-18.5 15.1-7.7 3.6-16.3 5.4-25.7 5.4zm-3.5-93.3c-6 0-10.9 2-14.7 6.1-3.7 4.1-6.1 9.9-7.1 17.4h42.3v-2.4c-.1-6.7-2-11.9-5.5-15.6-3.6-3.7-8.6-5.5-15-5.5z"/></g></svg>