<svg enable-background="new 0 0 559 256" height="256" viewBox="0 0 559 256" width="559" xmlns="http://www.w3.org/2000/svg"><g fill="#008000"><path d="m63.1 207.3h-30.5v-113.7h30.5zm-32.2-143.2c0-4.6 1.5-8.3 4.5-11.2 3.1-2.9 7.3-4.4 12.5-4.4s9.3 1.5 12.4 4.4 4.6 6.7 4.6 11.2c0 4.6-1.6 8.4-4.7 11.4-3.1 2.9-7.2 4.4-12.3 4.4s-9.2-1.5-12.4-4.4c-3.1-2.9-4.6-6.7-4.6-11.4z"/><path d="m120.5 93.6.9 13.1c8.1-10.2 19-15.2 32.7-15.2 12.1 0 21 3.5 26.9 10.6s8.9 17.7 9 31.7v73.5h-30.4v-72.7c0-6.4-1.4-11.1-4.2-14s-7.5-4.4-14-4.4c-8.5 0-15 3.6-19.2 10.9v80.2h-30.3v-113.7z"/><path d="m253.9 65.6v28h19.4v22.3h-19.4v56.8c0 4.2.8 7.2 2.4 9s4.7 2.7 9.2 2.7c3.4 0 6.3-.2 8.9-.7v23c-6 1.8-12.1 2.7-18.4 2.7-21.3 0-32.2-10.8-32.6-32.3v-61.3h-16.6v-22.2h16.6v-28z"/><path d="m367.1 207.3h-30.4v-117.1l-36.3 11.2v-24.6l63.4-22.7h3.3z"/><path d="m503.6 52.7v25h-2.9c-13.7.2-24.8 3.8-33.2 10.7-8.3 6.9-13.3 16.6-15 28.9 8.1-8.3 18.4-12.4 30.8-12.4 13.3 0 23.9 4.8 31.7 14.3s11.8 22.1 11.8 37.6c0 10-2.2 19-6.5 27-4.3 8.1-10.4 14.3-18.3 18.8-7.8 4.5-16.7 6.7-26.7 6.7-16.1 0-29.2-5.6-39.1-16.8s-14.8-26.2-14.8-44.9v-10.9c0-16.6 3.1-31.3 9.4-43.9 6.3-12.8 15.3-22.6 27-29.5 11.8-7 25.4-10.5 40.9-10.6zm-29.6 76.6c-4.9 0-9.4 1.3-13.3 3.9-4 2.5-6.9 5.9-8.8 10.1v9.2c0 10.2 2 18.1 6 23.9 4 5.7 9.6 8.5 16.8 8.5 6.5 0 11.8-2.6 15.8-7.7 4.1-5.2 6.1-11.9 6.1-20.1 0-8.3-2-15.1-6.1-20.2-4.2-5-9.6-7.6-16.5-7.6z"/></g></svg>