<svg enable-background="new 0 0 412 256" height="256" viewBox="0 0 412 256" width="412" xmlns="http://www.w3.org/2000/svg"><g fill="#474aa4"><path d="m64.6 182h67v25.3h-98.5v-153h31.5z"/><path d="m184.1 207.3h-30.5v-113.7h30.5zm-32.3-143.2c0-4.6 1.5-8.3 4.5-11.2 3.1-2.9 7.3-4.4 12.5-4.4s9.3 1.5 12.4 4.4 4.6 6.7 4.6 11.2c0 4.6-1.6 8.4-4.7 11.4-3.1 2.9-7.2 4.4-12.3 4.4s-9.2-1.5-12.4-4.4c-3-2.9-4.6-6.7-4.6-11.4z"/><path d="m275.1 175.9c0-3.7-1.9-6.6-5.6-8.7-3.6-2.2-9.5-4.1-17.7-5.8-27-5.7-40.6-17.2-40.6-34.5 0-10.1 4.2-18.5 12.5-25.2 8.4-6.8 19.4-10.2 32.9-10.2 14.4 0 26 3.4 34.6 10.2 8.7 6.8 13 15.6 13 26.5h-30.2c0-4.3-1.4-7.9-4.2-10.7-2.8-2.9-7.2-4.3-13.1-4.3-5.1 0-9.1 1.2-11.9 3.5s-4.2 5.3-4.2 8.8c0 3.4 1.6 6.1 4.7 8.2 3.2 2 8.6 3.8 16.2 5.4 7.6 1.5 13.9 3.2 19.1 5 16 5.9 24.1 16.1 24.1 30.6 0 10.4-4.4 18.8-13.3 25.2s-20.4 9.6-34.5 9.6c-9.5 0-18-1.7-25.4-5-7.4-3.4-13.1-8.1-17.3-14-4.2-6-6.3-12.4-6.3-19.2h28.8c.3 5.4 2.3 9.5 6 12.4s8.7 4.3 14.9 4.3c5.8 0 10.2-1.1 13.1-3.3 2.9-2.3 4.4-5.2 4.4-8.8z"/><path d="m365 65.6v28h19.4v22.3h-19.4v56.8c0 4.2.8 7.2 2.4 9s4.7 2.7 9.2 2.7c3.4 0 6.3-.2 8.9-.7v23c-6 1.8-12.1 2.7-18.4 2.7-21.3 0-32.2-10.8-32.6-32.3v-61.3h-16.5v-22.2h16.6v-28z"/></g></svg>