<svg enable-background="new 0 0 412 256" height="256" viewBox="0 0 412 256" width="412" xmlns="http://www.w3.org/2000/svg"><g fill="#333332"><path d="m59 94.3.9 13.1c8.1-10.2 19-15.2 32.7-15.2 12.1 0 21 3.5 26.9 10.6s8.9 17.7 9 31.7v73.5h-30.3v-72.7c0-6.4-1.4-11.1-4.2-14s-7.5-4.4-14-4.4c-8.5 0-15 3.6-19.2 10.9v80.2h-30.4v-113.7z"/><path d="m224.2 196.4c-7.5 9.1-17.9 13.7-31.1 13.7-12.2 0-21.5-3.5-28-10.5-6.4-7-9.6-17.3-9.8-30.8v-74.5h30.4v73.5c0 11.8 5.4 17.8 16.2 17.8 10.3 0 17.4-3.6 21.2-10.7v-80.6h30.5v113.7h-28.6z"/><path d="m312.9 208h-30.5v-161.5h30.5z"/><path d="m374.4 208h-30.5v-161.5h30.5z"/></g></svg>