<svg enable-background="new 0 0 454 256" height="256" viewBox="0 0 454 256" width="454" xmlns="http://www.w3.org/2000/svg"><g fill="#474aa4"><path d="m64.6 153.4v53.9h-31.5v-153h59.7c11.5 0 21.6 2.1 30.3 6.3 8.8 4.2 15.5 10.2 20.2 18 4.7 7.7 7 16.5 7 26.4 0 15-5.1 26.8-15.5 35.5-10.2 8.6-24.4 12.9-42.6 12.9zm0-25.6h28.2c8.3 0 14.7-2 19-5.9 4.4-3.9 6.6-9.5 6.6-16.8 0-7.5-2.2-13.6-6.6-18.2s-10.5-7-18.3-7.1h-28.9z"/><path d="m239 207.3c-1.4-2.7-2.4-6.1-3-10.2-7.4 8.2-16.9 12.3-28.7 12.3-11.1 0-20.4-3.2-27.8-9.7-7.3-6.4-10.9-14.6-10.9-24.4 0-12.1 4.4-21.3 13.3-27.8 9-6.4 21.9-9.7 38.8-9.8h14v-6.5c0-5.3-1.4-9.5-4.1-12.6-2.7-3.2-6.9-4.7-12.7-4.7-5.1 0-9.1 1.2-12.1 3.7-2.9 2.5-4.3 5.8-4.3 10.1h-30.4c0-6.6 2-12.7 6.1-18.3s9.8-10 17.2-13.1c7.4-3.2 15.8-4.8 25-4.8 14 0 25.1 3.5 33.3 10.6 8.3 7 12.4 16.9 12.4 29.6v49.3c.1 10.8 1.6 19 4.5 24.5v1.8zm-25.1-21.1c4.5 0 8.6-1 12.4-2.9 3.8-2 6.6-4.7 8.4-8.1v-19.6h-11.4c-15.2 0-23.3 5.3-24.3 15.8l-.1 1.8c0 3.8 1.3 6.9 4 9.4 2.7 2.4 6.3 3.6 11 3.6z"/><path d="m324.8 207.3h-30.5v-113.7h30.5zm-32.2-143.2c0-4.6 1.5-8.3 4.5-11.2 3.1-2.9 7.3-4.4 12.5-4.4s9.3 1.5 12.4 4.4 4.6 6.7 4.6 11.2c0 4.6-1.6 8.4-4.7 11.4-3.1 2.9-7.2 4.4-12.3 4.4s-9.2-1.5-12.4-4.4c-3.1-2.9-4.6-6.7-4.6-11.4z"/><path d="m418.2 122.1c-4.1-.6-7.8-.8-10.9-.8-11.5 0-19 3.9-22.6 11.7v74.4h-30.4v-113.8h28.7l.8 13.6c6.1-10.4 14.5-15.7 25.3-15.7 3.4 0 6.5.5 9.5 1.4z"/></g></svg>